<svg id="Layer_1" data-name="Layer 1" xmlns="http://www.w3.org/2000/svg" viewBox="0 0 400 130"><title>logo_wecook</title><path d="M155.72,44.41c-4.5,20.2-14.5,54.4-31.3,54.4-7.7,0-9.3-9.2-8.3-20.9-3.1,9.5-9.8,20.9-18.2,20.9-19.7,0-4.7-35.6-.7-48.2,2.1-6.9,5-13.9,1.1-13.9-5.9,0-13.8,16.2-13.8,24.2,0,3.9-7.9,2.8-7.9-5.5,0-7.2,8.4-23.4,21.5-23.4,10.4,0,13.9,9.2,10.2,20.7-3.4,10.8-13.4,37.4-7.1,37.4,5,0,13-17.6,17.8-29.7,1-4.5,2.1-8.8,3.2-12.7,0.5-1.7,11.8-2,10.6,2.6-3.2,12.2-9.9,39.8-5.1,39.8s13.9-29.9,15.5-45.7C144,36.91,157.22,37.81,155.72,44.41Z" style="fill:#ffcd05"/><path d="M124.42,103.32a11.35,11.35,0,0,1-8.6-3.66,14.7,14.7,0,0,1-3-5.26c-4,5.23-9,8.92-14.88,8.92-6.32,0-9.72-2.91-11.46-5.36-5.11-7.18-2.85-19.65,1.25-33a6.82,6.82,0,0,1-5.54,2.65,9.46,9.46,0,0,1-7-3.38,13,13,0,0,1-3-8.78c0-5,2.65-11.68,6.75-17.11,5.25-7,12.09-10.79,19.25-10.79s10.94,3.29,13,6c3.64,5,4.18,12.29,1.53,20.53-0.51,1.63-1.19,3.66-1.94,5.91-1.49,4.48-4.69,14.07-6.21,20.76,2.49-4.05,5.95-10.88,10.25-21.68,0.94-4.2,2-8.44,3.18-12.59,1.69-5.74,11.1-4.46,13.35-3.83,5.3,1.47,6.8,5.48,5.94,8.79C134.92,60,133.39,66.78,132.36,72c2.8-8.53,5.5-19.37,6.38-28.08a10,10,0,0,1,6.54-8.45c4.12-1.64,9.11-1,12.15,1.64a8.17,8.17,0,0,1,2.68,8.25C151.55,83.83,139.54,103.32,124.42,103.32Zm-6.25-29.41a4.5,4.5,0,0,1,2.43,4.39c-0.94,11,1,14.33,1.84,15.27a2.36,2.36,0,0,0,2,.75,7.63,7.63,0,0,0,1.23-.1,5.72,5.72,0,0,1-2.4-1.83c-1.56-2-4.45-5.77,4.71-41.23a12,12,0,0,0-2-.07c-0.92,3.4-1.78,6.87-2.54,10.31a4.51,4.51,0,0,1-.21.68C121.39,66.63,119.72,70.54,118.17,73.91ZM104.65,40.5A47.4,47.4,0,0,1,102.43,49c-0.31,1-.62,1.93-0.92,2.91-0.51,1.61-1.15,3.44-1.88,5.56C96.35,67,89.51,86.74,93.78,92.74c0.31,0.43,1.12,1.58,4.13,1.58a5,5,0,0,0,1-.11,6.11,6.11,0,0,1-2.78-2.15c-3.36-4.66-1-14.1,5.94-34.9,0.73-2.19,1.39-4.17,1.9-5.79C105.41,47.05,105.61,43.17,104.65,40.5ZM150,43.62a3.87,3.87,0,0,0-1.41.25,1.12,1.12,0,0,0-.92,1c-0.8,7.94-3.44,19.6-6.71,29.69q-1.19,3.68-2.31,6.61c4.66-8.68,9-21.4,12.57-37.37A3.77,3.77,0,0,0,150,43.62ZM93.55,47.25C91.19,51.45,89,56.93,89,60.81c0.68-2.09,1.4-4.18,2.12-6.27s1.33-3.84,1.79-5.29C93.12,48.6,93.33,47.93,93.55,47.25Zm5-6.07" style="fill:#ffce09"/><path d="M186.92,78.81c-3.1,5.2-11.8,20-24.1,20-7.4,0-14.2-4.9-14.2-15.2,0-17.1,11.5-31.8,22.6-31.8a11.16,11.16,0,0,1,10.7,11.5c0,11.5-11.6,20.7-22.1,17.1-0.1,1-.2,2-0.2,3,0,4.9,2.2,8.4,6.1,8.4,8.4,0,16.8-10.8,19-14.9,0.5-1,1.8-.7,2.3.3A2.22,2.22,0,0,1,186.92,78.81Zm-26.3-3.1c5.4,0.8,12.7-7.9,12.7-14.6a2.18,2.18,0,0,0-1.9-2.4C168.52,58.71,162.92,66.61,160.62,75.71Z" style="fill:#ffcd05"/><path d="M162.82,103.32c-12.85,0-18.7-10.21-18.7-19.7,0-19,12.92-36.3,27.1-36.3a15.63,15.63,0,0,1,15.2,16,22,22,0,0,1-1.76,8.58,5.56,5.56,0,0,1,1-.09A6.1,6.1,0,0,1,191,75.2a6.62,6.62,0,0,1-.1,5.63l-0.16.29-0.09.15C187.11,87.3,177.56,103.32,162.82,103.32Zm0.27-43.47c-5.46,4.68-10,13.55-10,23.77,0,6.22,2.92,8.85,5.65,9.94-2.31-2.27-3.65-5.8-3.65-10.14a34,34,0,0,1,.22-3.45,4.5,4.5,0,0,1,1.12-2.54,4.5,4.5,0,0,1-.2-2.81A45,45,0,0,1,163.09,59.85Zm1.31,25.86c0.22,0.85.62,1.6,1.32,1.6,2.33,0,5-1.49,7.45-3.54A20.58,20.58,0,0,1,164.41,85.71Zm24.34-6.78h0Zm-1.82-.11h0ZM177.31,65a22.61,22.61,0,0,1-3.49,7.32A13.58,13.58,0,0,0,177.31,65Z" style="fill:#ffce09"/><path d="M217.57,36.41c-5.5,0-22.7,23.3-22.7,44.4,0,7.5,2.3,11.2,5.9,11.2,4.7,0,11.6-8,15.2-19,1.2-3.7,7.5.1,6,5.9-1.9,8-9.9,19.9-22.3,19.9-7.7,0-16.4-5.2-16.4-19.2,0-23.2,18.6-47.4,31.8-47.4,13.8,0,14.6,14.3,9.3,25.6-2.3,4.9-11.5,2.6-10.4-2.8C215.57,46.61,220.87,36.41,217.57,36.41Z" style="fill:#ffcd05"/><path d="M199.67,103.32c-10.4,0-20.9-7.33-20.9-23.7,0-24.25,19.34-51.9,36.3-51.9,8,0,12,3.81,14.08,7,4.68,7.36,2.7,17.74-.71,25-2.07,4.41-7.29,6.39-12.4,4.69-4.73-1.57-7.4-5.8-6.48-10.3A57.45,57.45,0,0,1,211,48.3c-5.45,7.7-11.68,20.23-11.68,32.52,0,5.53,1.38,6.71,1.39,6.72,1.61-.14,7.43-5.21,10.93-15.92a6.44,6.44,0,0,1,8.16-4.27c4.36,1.27,8.08,6.49,6.47,12.7C224.21,89,215.07,103.32,199.67,103.32Zm4.54-60.94c-8.33,7.74-16.44,22.37-16.44,37.24,0,7.27,2.59,11,5.43,12.83-1.62-2.32-2.82-6-2.82-11.63,0-13.56,6.21-26.12,9.91-32.4C201.65,46.09,203,44.09,204.21,42.37Zm16,32h0Zm-1.83-18.72a2.31,2.31,0,0,0,1.9.2c2.34-5,3.12-10.37,2.18-14-0.39,1.49-.94,3.17-1.57,5.08A78.37,78.37,0,0,0,218.43,55.68Zm-0.3-14.84" style="fill:#ffce09"/><path d="M268.2,67.41a41.39,41.39,0,0,1-12.8,6.9c-0.2.7-.4,1.5-0.7,2.3-5.2,15.5-13.5,22.2-20.4,22.2-7.1,0-11.1-4.8-11.1-14.1,0-13.2,7-27.9,13.2-30.7,1.8-.7,3.7.6,4.8,2.5a10.65,10.65,0,0,1,8.6-4.7c6,0,9.1,7.1,6.6,18.6a33.58,33.58,0,0,0,10.1-5.8,1.4,1.4,0,0,1,2.2.7A1.86,1.86,0,0,1,268.2,67.41Zm-22.8,7a10.8,10.8,0,0,1-6.7-8.7,68.69,68.69,0,0,0-3.1,7c-3.1,7.8-4.3,17.4-1.7,18.7,2.9,1.4,7.5-5.8,10.8-15.1A14.5,14.5,0,0,0,245.4,74.41Zm-3.3-11.9c0,3.5,1.4,6.6,4.2,8.1,1.3-6,.8-10.9-0.8-11.7C243.6,57.91,242.1,60,242.1,62.51Z" style="fill:#ffcd05"/><path d="M234.3,103.32c-9.77,0-15.6-7-15.6-18.6,0-14.47,7.55-31.06,15.85-34.8l0.22-.09a7.51,7.51,0,0,1,6.31.45,14.33,14.33,0,0,1,8.72-3,10.8,10.8,0,0,1,8.56,4.09c2.18,2.71,3.33,6.54,3.4,11.18,0.69-.49,1.32-1,1.84-1.41a5.78,5.78,0,0,1,5.11-1.2,6.08,6.08,0,0,1,4.14,3.62,6.35,6.35,0,0,1-1.78,7.28l-0.16.12A48,48,0,0,1,259,77.83l-0.1.28C253.63,93.9,244.42,103.32,234.3,103.32Zm3-44.58c-1.6,1.3-3.76,4.18-5.7,8.56a44.61,44.61,0,0,0-3.89,17.42,20.13,20.13,0,0,0,.4,4.29c-0.88-7.24,3.08-17.36,3.32-17.95a72.82,72.82,0,0,1,3.3-7.44,4.5,4.5,0,0,1,2.95-2.28,10,10,0,0,1,.33-1.66,4.51,4.51,0,0,1-.69-0.9ZM248.86,78a69.77,69.77,0,0,1-3.18,7.55,49,49,0,0,0,4.76-10.41l0.05-.15c0.17-.44.3-0.93,0.45-1.45l0.14-.5a4.49,4.49,0,0,1,.93-1.71,4.5,4.5,0,0,1,0-1.91c1.46-6.73.62-10.82-.65-12.41a1.78,1.78,0,0,0-1.55-.74l-0.41,0c3.29,3.79,2.08,11.68,1.31,15.24a4.5,4.5,0,0,1-.9,1.88,4.47,4.47,0,0,1-.13,2.39l-0.11.33A16.24,16.24,0,0,1,248.86,78Zm-9.62-2.22a43.7,43.7,0,0,0-1.59,5.68c0.72-1.43,1.48-3.14,2.24-5.14C239.67,76.19,239.45,76,239.24,75.82ZM269.43,68l0,0Zm-1.23-.62h0Z" style="fill:#ffce09"/><path d="M303.07,67.41a41.39,41.39,0,0,1-12.8,6.9c-0.2.7-.4,1.5-0.7,2.3-5.2,15.5-13.5,22.2-20.4,22.2-7.1,0-11.1-4.8-11.1-14.1,0-13.2,7-27.9,13.2-30.7,1.8-.7,3.7.6,4.8,2.5a10.65,10.65,0,0,1,8.6-4.7c6,0,9.1,7.1,6.6,18.6a33.58,33.58,0,0,0,10.1-5.8,1.4,1.4,0,0,1,2.2.7A1.86,1.86,0,0,1,303.07,67.41Zm-22.8,7a10.8,10.8,0,0,1-6.7-8.7,68.69,68.69,0,0,0-3.1,7c-3.1,7.8-4.3,17.4-1.7,18.7,2.9,1.4,7.5-5.8,10.8-15.1A14.5,14.5,0,0,0,280.27,74.41ZM277,62.51c0,3.5,1.4,6.6,4.2,8.1,1.3-6,.8-10.9-0.8-11.7C278.47,57.91,277,60,277,62.51Z" style="fill:#ffcd05"/><path d="M269.17,103.32c-9.77,0-15.6-7-15.6-18.6,0-14.47,7.55-31.06,15.85-34.8l0.22-.09a7.51,7.51,0,0,1,6.31.45,14.33,14.33,0,0,1,8.72-3,10.8,10.8,0,0,1,8.56,4.09c2.18,2.71,3.33,6.54,3.4,11.18,0.69-.49,1.32-1,1.84-1.41a5.78,5.78,0,0,1,5.11-1.2,6.08,6.08,0,0,1,4.14,3.62A6.35,6.35,0,0,1,306,70.87L305.8,71a48,48,0,0,1-11.88,6.84l-0.1.28C288.5,93.9,279.29,103.32,269.17,103.32Zm3-44.58c-1.6,1.3-3.76,4.18-5.7,8.56a44.61,44.61,0,0,0-3.89,17.42A20.13,20.13,0,0,0,263,89c-0.88-7.24,3.08-17.36,3.32-17.95a72.82,72.82,0,0,1,3.3-7.44,4.5,4.5,0,0,1,2.95-2.28,10,10,0,0,1,.33-1.66,4.51,4.51,0,0,1-.69-0.9ZM283.73,78a69.77,69.77,0,0,1-3.18,7.55,49,49,0,0,0,4.76-10.41l0.05-.15c0.17-.44.3-0.93,0.45-1.45l0.14-.5a4.49,4.49,0,0,1,.93-1.71,4.5,4.5,0,0,1,0-1.91c1.46-6.73.62-10.82-.65-12.41a1.78,1.78,0,0,0-1.55-.74l-0.41,0c3.29,3.79,2.08,11.68,1.31,15.24a4.5,4.5,0,0,1-.9,1.88,4.47,4.47,0,0,1-.13,2.39l-0.11.33A16.24,16.24,0,0,1,283.73,78Zm-9.62-2.22a43.7,43.7,0,0,0-1.59,5.68c0.72-1.43,1.48-3.14,2.24-5.14C274.53,76.19,274.32,76,274.11,75.82ZM304.3,68l0,0Zm-1.23-.62h0Z" style="fill:#ffce09"/><path d="M332.44,78.61c-2.3,3.8-11,20.2-17.5,20.2-4.9,0-8.8-7.7-10.8-16.5a0.2,0.2,0,0,1-.2.1c-1.5,6.6-2.6,11.8-3,14.2-0.7,4.4-9,1.9-9-4.5,0-5.5,8.1-39.1,16.6-59.1,2.4-5.7,11.2-1.9,9.6,2.2-3.1,7.8-6.2,17.3-8.8,26.5,4-6.9,8.5-9.9,13.1-9.9a6.36,6.36,0,0,1,6.4,6.3c0,6-7.7,13.1-15.2,18.4,1.1,5.8,2.9,10.7,5.5,11.6,3.7,1.4,8.7-7.6,10.9-11.1a1.29,1.29,0,0,1,2.3.2A1.41,1.41,0,0,1,332.44,78.61Zm-26.7-3.3a2.93,2.93,0,0,0-.2.9c6.6-6,12.9-13.5,12.9-16.9,0-1.2-.5-1.6-1.1-1.6-2.4,0-9.2,9.1-11.3,17.7Z" style="fill:#ffcd05"/><path d="M298.16,103.33l-0.7,0a11.26,11.26,0,0,1-10-11.19c0-6.59,8.51-41,17-60.86,2.07-4.91,7.35-6.94,12.57-4.82,4.64,1.88,6.95,6.36,5.36,10.42-1.32,3.32-2.68,7.06-4,11.06a14.79,14.79,0,0,1,4.13-.59,10.86,10.86,0,0,1,10.9,10.8c0,6.14-4.94,13-14.68,20.31a20.29,20.29,0,0,0,1.67,4.7,48.37,48.37,0,0,0,5.13-7.25l0.77-1.25,0.06-.1a5.72,5.72,0,0,1,5.18-2.61,5.85,5.85,0,0,1,4.89,3.29,5.79,5.79,0,0,1-.14,5.84c-0.23.39-.52,0.89-0.87,1.49-7.23,12.47-13.46,20.78-20.42,20.78-3.61,0-6.87-2.08-9.56-5.95A7,7,0,0,1,298.16,103.33Zm-1.66-7.44v0ZM308,80a4.45,4.45,0,0,1,.54,1.33c2.25,9.89,5.65,13,6.41,13,0.43-.07,1.28-0.45,2.75-1.94l-0.08,0c-3.84-1.37-6.44-5.72-8.12-13.65l-0.92.85A4.56,4.56,0,0,1,308,80Zm4.75-45.36-0.06.13c-8.57,20.17-16.25,52.94-16.25,57.36a2.19,2.19,0,0,0,.49,1.43c0.56-2.85,1.47-7.08,2.62-12.13a4.49,4.49,0,0,1,2.13-2.89,4.49,4.49,0,0,1-.64-2.31,7,7,0,0,1,.43-2.31,4.51,4.51,0,0,1,.7-1.32,48.17,48.17,0,0,1,3.55-8.21,4.49,4.49,0,0,1-.7-3.89c2.64-9.35,5.64-18.44,8.48-25.76A1.51,1.51,0,0,0,312.74,34.63Zm16.1,41.28h0ZM322.3,56.31a6.83,6.83,0,0,1,.64,3,9.57,9.57,0,0,1-.77,3.48c1.52-2,2.17-3.62,2.17-4.68a1.85,1.85,0,0,0-1.9-1.8H322.3Z" style="fill:#ffce09"/><path d="M273,80a3.77,3.77,0,0,0,2.42-3.23,1.37,1.37,0,0,0-.68,2.2" style="fill:#ffcd05"/><path d="M273.65,82.37a6.46,6.46,0,0,0,4.25-5.64c0.15-1.67-1.72-2.78-3.16-2.41A3.82,3.82,0,0,0,272.06,77a3.9,3.9,0,0,0,.9,3.71,2.52,2.52,0,0,0,3.54,0,2.56,2.56,0,0,0,0-3.54,1.47,1.47,0,0,1,.41,1c0-.48-0.18.58,0,0.12l-0.15.34a0.76,0.76,0,1,0-.15.17c-0.11.11-.88,0.41-0.51,0.32l-3.16-2.41a0.64,0.64,0,1,0,0-.12,0.85,0.85,0,1,0,0,.23c0.07-.3,0,0-0.07.12a2.27,2.27,0,0,1-.24.39s0.34-.36,0-0.08a3.06,3.06,0,0,1-.27.25s0.45-.29,0,0c-0.12.07-.53,0.24,0,0a2.56,2.56,0,0,0-1.75,3.08,2.53,2.53,0,0,0,3.08,1.75h0Z" style="fill:#ffce09"/><path d="M239.37,81.66a6.09,6.09,0,0,1,1.27-5.09L240,75.94" style="fill:#ffcd05"/><path d="M241.78,81a3.58,3.58,0,0,1,.63-2.65,2.58,2.58,0,0,0,0-3.54l-0.59-.63c-2.19-2.37-5.72,1.17-3.54,3.54l0.59,0.63V74.81A9.06,9.06,0,0,0,237,82.32,2.52,2.52,0,0,0,240,84.07,2.56,2.56,0,0,0,241.78,81h0Z" style="fill:#ffce09"/><path d="M168.33,86.41l-3.55-.35,7.63-1.7" style="fill:#ffcd05"/><path d="M168.33,83.91l-3.55-.35,0.66,4.91,7.63-1.7c3.14-.7,1.81-5.52-1.33-4.82l-7.63,1.7a2.49,2.49,0,0,0-1.79,2.74,2.54,2.54,0,0,0,2.46,2.17l3.55,0.35a2.52,2.52,0,0,0,2.5-2.5,2.56,2.56,0,0,0-2.5-2.5h0Z" style="fill:#ffce09"/><path d="M223.7,64.84A8.21,8.21,0,0,1,213.54,64c-3.3-3.33-2.88-8.71-2.23-13.36l-6.14,13.58,0.81-7.8a36.54,36.54,0,0,1-3,20,14.85,14.85,0,0,1,.87-12.69L200.57,82.5c-0.15.85-.23,1.91,0.47,2.42,1,0.73,2.31-.45,3-1.52a45.11,45.11,0,0,0,6.41-21l1.6,8.25,0.71-1" style="fill:#ffcd05"/><path d="M222.44,62.69c-8.81,4.93-9.34-6.64-8.64-12,0.32-2.43-3.67-3.45-4.66-1.26L203,63l4.66,1.26,0.81-7.8h-5a36.44,36.44,0,0,1-2.62,18.71l4.57,0.6A13.23,13.23,0,0,1,206,65L201.47,63c-1.1,6.24-2.53,12.51-3.32,18.79-0.35,2.8.69,6.3,4.29,5.71,3.77-.62,5.68-6.33,6.9-9.27A50.15,50.15,0,0,0,212.9,62.4l-4.91.66,1.6,8.25c0.45,2.34,3.42,2.14,4.57.6l0.71-1c1.93-2.58-2.41-5.08-4.32-2.52l-0.71,1,4.57,0.6-1.6-8.25c-0.56-2.91-4.73-2-4.91.66a45.5,45.5,0,0,1-1.58,9.41c-0.86,3-2.91,5.88-3.64,8.84l0.62,0.63,0.33-1.88a46.06,46.06,0,0,0,.83-4.7l1.83-10.34c0.46-2.58-3.22-4.66-4.57-1.93a18.39,18.39,0,0,0-1.13,14.62c0.6,1.81,3.65,2.73,4.57.6a41.16,41.16,0,0,0,3.3-21.23,2.5,2.5,0,0,0-5,0l-0.81,7.8c-0.25,2.42,3.66,3.48,4.66,1.26l6.14-13.58-4.66-1.26c-0.67,5.1-1,11.17,3,15.12,3.6,3.59,9,3.59,13.19,1.23,2.81-1.57.29-5.89-2.52-4.32h0Z" style="fill:#ffce09"/><path d="M133.59,69.32l3.92-17.95" style="fill:#ffcd05"/><path d="M136,70L139.92,52c0.68-3.14-4.13-4.48-4.82-1.33l-3.92,17.95c-0.68,3.14,4.13,4.48,4.82,1.33h0Z" style="fill:#ffce09"/><path d="M104.6,78.31l5.78-11.94c1.33-2.75,2.69-5.65,2.5-8.7" style="fill:#ffcd05"/><path d="M106.76,79.57c3.22-6.66,8.57-14.29,8.62-21.9,0-3.22-5-3.22-5,0,0,6.44-5.19,13.7-7.94,19.38-1.4,2.88,2.91,5.42,4.32,2.52h0Z" style="fill:#ffce09"/><path d="M115.3,60.52l-3.56-7.35,4.6,0.23" style="fill:#ffcd05"/><path d="M117.46,59.26l-3.56-7.35-2.16,3.76,4.6,0.23c3.22,0.16,3.21-4.84,0-5l-4.6-.23c-2-.1-2.93,2.17-2.16,3.76l3.56,7.35c1.4,2.9,5.72.36,4.32-2.52h0Z" style="fill:#ffce09"/><path d="M117.32,51.7a4.26,4.26,0,0,0-5,.95" style="fill:#ffcd05"/><path d="M118.58,49.54a6.88,6.88,0,0,0-8,1.34c-2.21,2.34,1.32,5.88,3.54,3.54a1.62,1.62,0,0,1,1.11-.63q0.26-.05,0,0a4.34,4.34,0,0,1,.55,0c-0.47,0,.67.26,0.31,0.09a2.57,2.57,0,0,0,3.42-.9,2.52,2.52,0,0,0-.9-3.42h0Z" style="fill:#ffce09"/><path d="M89.34,57.67l4.12-10.29L88.29,61" style="fill:#ffcd05"/><path d="M91.75,58.33L95.87,48l-4.82-1.33-5.17,13.6c-1.14,3,3.69,4.31,4.82,1.33L95.87,48c1.15-3-3.64-4.27-4.82-1.33L86.93,57c-1.2,3,3.64,4.28,4.82,1.33h0Z" style="fill:#ffce09"/><path d="M111.33,63.5c3.22,0,3.22-5,0-5s-3.22,5,0,5h0Z" style="fill:#ffce09"/><path d="M115.28,53.65a1.91,1.91,0,1,0-1.55-3.32l5,0.2-4.21-1L118,50.26" style="fill:#ffcd05"/><path d="M115.94,56.06a4.39,4.39,0,1,0-3.47-7.89A2.61,2.61,0,0,0,111.32,51a2.57,2.57,0,0,0,2.41,1.84l5,0.2c2.8,0.11,3.42-4.28.66-4.91l-4.21-1L113.83,52l3.52,0.69a2.56,2.56,0,0,0,3.08-1.75,2.52,2.52,0,0,0-1.75-3.08l-3.52-.69a2.56,2.56,0,0,0-3.08,1.75A2.53,2.53,0,0,0,113.83,52l4.21,1L118.7,48l-5-.2L115,52.49q0.37-.23,0-0.08t0,0a0.71,0.71,0,0,1-.58-0.39,0.77,0.77,0,0,1,0-.64,1,1,0,1,1-.07.08q0.83-.4.22-0.22a2.5,2.5,0,0,0,1.33,4.82h0Z" style="fill:#ffce09"/><path d="M322.6,80.84a1.89,1.89,0,0,1-2.85-2.45,3.48,3.48,0,0,1,2-1.14,5.32,5.32,0,0,0,2.14-.91,1.56,1.56,0,0,0,.35-2.08l2.21,1.14-2.22-2.87,3.58,3.52-1.55-3.49,2,2.19" style="fill:#ffcd05"/><path d="M321.34,78.68q-0.48.27,0.08,0.72,0.08,0.8.54,0.4a3.7,3.7,0,0,0,1.14-.33,6.5,6.5,0,0,0,2.56-1.36A4.12,4.12,0,0,0,326.4,73L323,76.42l2.21,1.14c2,1,5.08-1.27,3.42-3.42l-2.22-2.87-3.93,3L326,77.82c2.15,2.11,5-.55,3.93-3l-1.55-3.49-3.93,3,2,2.19c2.17,2.39,5.69-1.15,3.54-3.54l-2-2.19c-2.05-2.26-5,.62-3.93,3l1.55,3.49,3.93-3L326,70.76c-1.94-1.91-5.71.72-3.93,3l2.22,2.87,3.42-3.42-2.21-1.14c-2.15-1.11-4.76,1.18-3.42,3.42l0.17-1.07-0.26.12a3.25,3.25,0,0,0-.91.26,8.1,8.1,0,0,0-2.1.91,4.46,4.46,0,0,0-2,4A4.39,4.39,0,0,0,323.86,83a2.58,2.58,0,0,0,.9-3.42,2.52,2.52,0,0,0-3.42-.9h0Z" style="fill:#ffce09"/><path d="M215.34,69c3.22,0,3.22-5,0-5s-3.22,5,0,5h0Z" style="fill:#ffce09"/><path d="M215.57,67.18l-3.38-2.78,2.45,1.38" style="fill:#ffcd05"/><path d="M217.34,65.42L214,62.64l-3,3.93,2.45,1.38a2.5,2.5,0,1,0,2.52-4.32l-2.45-1.38a2.51,2.51,0,0,0-3.23.64,2.47,2.47,0,0,0,.2,3.28L213.81,69a2.56,2.56,0,0,0,3.54,0,2.53,2.53,0,0,0,0-3.54h0Z" style="fill:#ffce09"/><path d="M155.72,44.41c-4.5,20.2-14.5,54.4-31.3,54.4-7.7,0-9.3-9.2-8.3-20.9-3.1,9.5-9.8,20.9-18.2,20.9-19.7,0-4.7-35.6-.7-48.2,2.1-6.9,5-13.9,1.1-13.9-5.9,0-13.8,16.2-13.8,24.2,0,3.9-7.9,2.8-7.9-5.5,0-7.2,8.4-23.4,21.5-23.4,10.4,0,13.9,9.2,10.2,20.7-3.4,10.8-13.4,37.4-7.1,37.4,5,0,13-17.6,17.8-29.7,1-4.5,2.1-8.8,3.2-12.7,0.5-1.7,11.8-2,10.6,2.6-3.2,12.2-9.9,39.8-5.1,39.8s13.9-29.9,15.5-45.7C144,36.91,157.22,37.81,155.72,44.41Z" style="fill:#fff"/><path d="M186.92,78.81c-3.1,5.2-11.8,20-24.1,20-7.4,0-14.2-4.9-14.2-15.2,0-17.1,11.5-31.8,22.6-31.8a11.16,11.16,0,0,1,10.7,11.5c0,11.5-11.6,20.7-22.1,17.1-0.1,1-.2,2-0.2,3,0,4.9,2.2,8.4,6.1,8.4,8.4,0,16.8-10.8,19-14.9,0.5-1,1.8-.7,2.3.3A2.22,2.22,0,0,1,186.92,78.81Zm-26.3-3.1c5.4,0.8,12.7-7.9,12.7-14.6a2.18,2.18,0,0,0-1.9-2.4C168.52,58.71,162.92,66.61,160.62,75.71Z" style="fill:#fff"/><path d="M217.57,36.41c-5.5,0-22.7,23.3-22.7,44.4,0,7.5,2.3,11.2,5.9,11.2,4.7,0,11.6-8,15.2-19,1.2-3.7,7.5.1,6,5.9-1.9,8-9.9,19.9-22.3,19.9-7.7,0-16.4-5.2-16.4-19.2,0-23.2,18.6-47.4,31.8-47.4,13.8,0,14.6,14.3,9.3,25.6-2.3,4.9-11.5,2.6-10.4-2.8C215.57,46.61,220.87,36.41,217.57,36.41Z" style="fill:#fff"/><path d="M268.2,67.41a41.39,41.39,0,0,1-12.8,6.9c-0.2.7-.4,1.5-0.7,2.3-5.2,15.5-13.5,22.2-20.4,22.2-7.1,0-11.1-4.8-11.1-14.1,0-13.2,7-27.9,13.2-30.7,1.8-.7,3.7.6,4.8,2.5a10.65,10.65,0,0,1,8.6-4.7c6,0,9.1,7.1,6.6,18.6a33.58,33.58,0,0,0,10.1-5.8,1.4,1.4,0,0,1,2.2.7A1.86,1.86,0,0,1,268.2,67.41Zm-22.8,7a10.8,10.8,0,0,1-6.7-8.7,68.69,68.69,0,0,0-3.1,7c-3.1,7.8-4.3,17.4-1.7,18.7,2.9,1.4,7.5-5.8,10.8-15.1A14.5,14.5,0,0,0,245.4,74.41Zm-3.3-11.9c0,3.5,1.4,6.6,4.2,8.1,1.3-6,.8-10.9-0.8-11.7C243.6,57.91,242.1,60,242.1,62.51Z" style="fill:#fff"/><path d="M303.07,67.41a41.39,41.39,0,0,1-12.8,6.9c-0.2.7-.4,1.5-0.7,2.3-5.2,15.5-13.5,22.2-20.4,22.2-7.1,0-11.1-4.8-11.1-14.1,0-13.2,7-27.9,13.2-30.7,1.8-.7,3.7.6,4.8,2.5a10.65,10.65,0,0,1,8.6-4.7c6,0,9.1,7.1,6.6,18.6a33.58,33.58,0,0,0,10.1-5.8,1.4,1.4,0,0,1,2.2.7A1.86,1.86,0,0,1,303.07,67.41Zm-22.8,7a10.8,10.8,0,0,1-6.7-8.7,68.69,68.69,0,0,0-3.1,7c-3.1,7.8-4.3,17.4-1.7,18.7,2.9,1.4,7.5-5.8,10.8-15.1A14.5,14.5,0,0,0,280.27,74.41ZM277,62.51c0,3.5,1.4,6.6,4.2,8.1,1.3-6,.8-10.9-0.8-11.7C278.47,57.91,277,60,277,62.51Z" style="fill:#fff"/><path d="M332.44,78.61c-2.3,3.8-11,20.2-17.5,20.2-4.9,0-8.8-7.7-10.8-16.5a0.2,0.2,0,0,1-.2.1c-1.5,6.6-2.6,11.8-3,14.2-0.7,4.4-9,1.9-9-4.5,0-5.5,8.1-39.1,16.6-59.1,2.4-5.7,11.2-1.9,9.6,2.2-3.1,7.8-6.2,17.3-8.8,26.5,4-6.9,8.5-9.9,13.1-9.9a6.36,6.36,0,0,1,6.4,6.3c0,6-7.7,13.1-15.2,18.4,1.1,5.8,2.9,10.7,5.5,11.6,3.7,1.4,8.7-7.6,10.9-11.1a1.29,1.29,0,0,1,2.3.2A1.41,1.41,0,0,1,332.44,78.61Zm-26.7-3.3a2.93,2.93,0,0,0-.2.9c6.6-6,12.9-13.5,12.9-16.9,0-1.2-.5-1.6-1.1-1.6-2.4,0-9.2,9.1-11.3,17.7Z" style="fill:#fff"/></svg>