<?xml version="1.0" encoding="utf-8"?>
<!-- Generator: Adobe Illustrator 17.1.0, SVG Export Plug-In . SVG Version: 6.00 Build 0)  -->
<!DOCTYPE svg PUBLIC "-//W3C//DTD SVG 1.1//EN" "http://www.w3.org/Graphics/SVG/1.1/DTD/svg11.dtd">
<svg version="1.1" id="Layer_1" xmlns:sketch="http://www.bohemiancoding.com/sketch/ns"
	 xmlns="http://www.w3.org/2000/svg" xmlns:xlink="http://www.w3.org/1999/xlink" x="0px" y="0px" viewBox="186.5 -848 6000 4500"
	 enable-background="new 186.5 -848 6000 4500" xml:space="preserve">
<title>Artboard 13</title>
<desc>Created with Sketch.</desc>
<g id="Page-1" sketch:type="MSPage" display="none">
	<g id="Artboard-13" sketch:type="MSArtboardGroup" display="inline">
		<g id="Layer_1-2" transform="translate(545.000000, 392.000000)" sketch:type="MSLayerGroup">
			<path id="Shape-2" sketch:type="MSShapeGroup" fill="#FFB21C" stroke="#FFB21C" stroke-linejoin="round" d="M567.1,1.4v138.7
				l-439.9,254l-0.4,877.4L7,1202.5V324.6L567.1,1.4"/>
			<path id="Shape-3" sketch:type="MSShapeGroup" fill="#FF8800" stroke="#FF8800" stroke-linejoin="round" d="M567.1,1.4l120,69.5
				v138.5l-120-69.3V1.4z"/>
			<path id="Shape" sketch:type="MSShapeGroup" fill="#FF8800" stroke="#FF8800" stroke-linejoin="round" d="M567,508.7l120.4,69.9
				v368.7L567,1017V508.7z"/>
			<path id="Shape-4" sketch:type="MSShapeGroup" fill="#FFB21C" stroke="#FFB21C" stroke-linejoin="round" d="M7,354.6V186.1
				l120.2-68.7v167.8L7,354.6z"/>
			<path id="Shape-5" sketch:type="MSShapeGroup" fill="#FF8800" stroke="#FF8800" stroke-linejoin="round" d="M127.2,117.4
				l119.3,68.9l-119.3,68.9V117.4z"/>
			<path id="Shape_1_" sketch:type="MSShapeGroup" fill="#F57600" stroke="#F57600" stroke-linejoin="round" d="M687,1672.4v138.4
				l320-184.6l-120-69.3L687,1672.4z"/>
			<path id="Shape_2_" sketch:type="MSShapeGroup" fill="#FFB21C" stroke="#FFB21C" stroke-linejoin="round" d="M1006.6,762.8
				L567,1017V508.7l-120.6,69.6l0.2,1371.1l120,69.3v-863.3L887,970.7v586.2l120,69.3v-0.1L1006.6,762.8z"/>
			<path id="Shape_3_" sketch:type="MSShapeGroup" fill="#F57600" stroke="#F57600" stroke-linejoin="round" d="M887,1109.3V970.7
				l-320.4,184.7l120.8,69.7L887,1109.3z"/>
			<path id="Shape_4_" sketch:type="MSShapeGroup" fill="#FF8800" stroke="#FF8800" stroke-linejoin="round" d="M1126.6,832
				l-120-69.3l0.4,863.3l-320,184.7l0.4-585.7l-120.8-69.7v863.2l560-323.4V832z"/>
			<path id="Shape-6" sketch:type="MSShapeGroup" fill="#FF8800" stroke="#FF8800" stroke-linejoin="round" d="M126.8,394.2v877.2
				l120.2-69.7V463.1l-119.8-69L126.8,394.2z"/>
			<path id="Shape-7" sketch:type="MSShapeGroup" fill="#F57600" stroke="#F57600" stroke-linejoin="round" d="M567.1,140.1
				l-439.9,254l119.8,69l440.1-253.7L567.1,140.1z"/>
		</g>
		<path id="readybox" sketch:type="MSShapeGroup" fill="#FF8800" d="M2347.1,1293.8c-11.5-5.8-26.8-8.7-45.9-8.7
			c-20.8,0-40.4,5-59.1,14.9s-37.7,24.4-57.3,43.5v295h-111.6v-453.8h111.6v64.9c19-20.8,39.5-37.9,61.4-51.5s46.4-20.3,73.5-20.3
			c23.1,0,39.5,3,49.3,9.1L2347.1,1293.8z M2511.1,1440.9c2,40.4,11.8,69.4,29.4,87s45.3,26.4,83.1,26.4c21.9,0,41.2-2.7,57.8-8.2
			s31.1-16,43.5-31.6l83.1,59.3c-18.2,26.2-41.7,45.9-70.7,58.8s-68.6,19.5-118.8,19.5c-74.7,0-130.4-19.6-167.2-58.8
			s-55.2-98.5-55.2-177.8c0-162.4,72.7-243.6,218-243.6c64.6,0,113.9,18.2,147.7,54.7s50.8,89.6,50.8,159.4v54.9H2511.1z
			 M2701.9,1363.9c0-68.9-30.1-103.4-90.4-103.4c-19.9,0-36.2,3.4-48.9,10.2s-22.9,16.9-30.5,30.3s-13.6,34.4-18,62.9H2701.9z
			 M3181.2,1638.6v-47.2c-44.1,40.4-91.4,60.6-141.9,60.6c-50.2,0-88.1-13.2-113.8-39.6s-38.5-60.2-38.5-101.4
			c0-32.3,6.6-59,19.7-80c13.1-21.1,32.6-37.6,58.4-49.5s62.9-20.4,111.4-25.3l95.6-9.1v-20.3c0-25.4-7.6-42.8-22.9-52.1
			s-37.6-14.1-67.1-14.1c-24.2,0-45.1,4-62.5,12.1s-30.4,19.6-38.7,34.6l-87-55.8c15.3-25.7,39.2-45.4,71.8-59.1s72-20.5,118.1-20.5
			c70.7,0,121.6,12.3,152.9,37s46.9,65.1,46.9,121.3v308.5H3181.2z M3172.1,1427.9l-56.7,5.2c-40.1,3.5-69,11.1-86.7,22.9
			s-26.6,29.6-26.6,53.2c0,20.8,5.8,35,17.3,42.6s26.8,11.5,45.9,11.5c13.6,0,30.1-4.3,49.5-12.8s38.6-20.5,57.3-36.1V1427.9z
			 M3704.2,1638.6v-44.1c-20.8,17.6-42.7,31.6-65.8,42s-49.3,15.6-78.7,15.6c-57.1,0-100.8-20.6-131.1-61.9s-45.4-99.5-45.4-174.8
			c0-77,16.7-136.9,50-179.5s80.1-64,140.4-64c21.3,0,43.3,4.4,65.8,13.2s41.1,20,55.8,33.5V994.5h111.6v644.2H3704.2z
			 M3695.2,1310.7c-11.8-10.7-26.5-20.1-43.9-28.3s-35.3-12.3-53.4-12.3c-30,0-54.1,12.9-72.2,38.7s-27.3,60.8-27.3,104.9
			c0,43.6,7.4,77.7,22.3,102.5s37.9,37.2,69,37.2c18.5,0,37.3-4.3,56.5-12.8s35.5-19,49.1-31.4V1310.7z M3885.1,1699.6
			c24.2,8.4,46,12.5,65.3,12.5c16.7,0,31.4-5,44.1-15.1s25.8-31,39.4-62.7l11.7-26.8l-164-422.7h115.9l107.3,289.9l109.9-289.9
			h113.3l-195.1,485c-15.9,38.9-31.3,67.8-46.3,86.5s-32.5,32.3-52.6,40.7s-45.2,12.5-75.5,12.5c-32.9,0-65.3-4.3-97.3-13
			L3885.1,1699.6z M4825.6,1408.5c0,75.3-15.8,134.7-47.4,178.2s-76.6,65.3-135.2,65.3c-23.1,0-48.2-5.3-75.5-15.8s-49-23.9-65.1-40
			l-15.1,42.4H4402V994.5h111.6v226.7c41-32.9,86.2-49.3,135.8-49.3c60.9,0,105.4,21,133.7,62.9S4825.6,1334.6,4825.6,1408.5
			L4825.6,1408.5z M4710.5,1410.2c0-46.7-7.4-81.8-22.1-105.1s-38.4-35-70.9-35c-18.2,0-36.6,4.3-55.2,12.8s-34.8,19-48.7,31.4
			v198.6c12.4,10.7,27.5,20.1,45.2,28.3s35,12.3,51.7,12.3c32,0,56.7-12.2,74-36.6S4710.5,1456.9,4710.5,1410.2L4710.5,1410.2z
			 M5340.8,1412.8c0,75.6-17.4,134.3-52.3,176.3s-89.8,62.9-164.8,62.9c-145.4,0-218-79.7-218-239.2c0-76.7,17.4-136.1,52.3-178
			s90.1-62.9,165.7-62.9c75,0,129.9,21,164.8,62.9S5340.8,1336.1,5340.8,1412.8L5340.8,1412.8z M5225.3,1412.8
			c0-49.9-7.8-86.3-23.4-109.2s-41.7-34.4-78.3-34.4c-36.3,0-62.6,11.8-78.7,35.3s-24.2,59.6-24.2,108.4c0,48.5,8,84.1,24,107.1
			s42.3,34.4,79,34.4c36.1,0,62-11.3,77.9-34S5225.3,1461.8,5225.3,1412.8L5225.3,1412.8z M5688.7,1638.6l-90-144.5l-94.3,144.5
			h-123.7l156.6-224.1l-154-229.7h130.2l90.4,143.6l93-143.6h123.3L5664,1408.5l157,230.2H5688.7z"/>
	</g>
</g>
<g>
	<g>
		<defs>
			<rect id="SVGID_1_" x="206.9" y="-584.4" width="5959.2" height="3972.8"/>
		</defs>
		<clipPath id="SVGID_2_">
			<use xlink:href="#SVGID_1_"  overflow="visible"/>
		</clipPath>
		<g clip-path="url(#SVGID_2_)">
			<defs>
				<rect id="SVGID_3_" x="206.9" y="-584.4" width="5959.2" height="3972.8"/>
			</defs>
			<clipPath id="SVGID_4_">
				<use xlink:href="#SVGID_3_"  overflow="visible"/>
			</clipPath>
			<g clip-path="url(#SVGID_4_)">
				<defs>
					<rect id="SVGID_5_" x="206.9" y="-584.4" width="5959.2" height="3972.8"/>
				</defs>
				<clipPath id="SVGID_6_">
					<use xlink:href="#SVGID_5_"  overflow="visible"/>
				</clipPath>
				<path clip-path="url(#SVGID_6_)" d="M2876.9,953.9c-5.7-27.1-20-53.3-42.8-78.8c-22.9-25.5-55.6-46.8-98.3-64.1
					c-42.7-17.2-97.9-24.4-165.8-21.4c-50.6,2.4-101.8,10.6-153.5,24.5c-46.1,12.4-90.5,27.3-133.5,44.5c0-0.2,0-0.4,0-0.5
					c-5.1,2.2-10.1,4.3-15,6.5c-0.3,0.1-0.7,0.3-1,0.4c-3,1.3-6.2,2.7-9.4,4.2c-36.8,16.6-66.3,31.9-88.4,45.8
					c-32.3,20.3-50,35.9-68.9,54.4c-18.9,18.5-24.1,34.6-24.3,44.3c-0.9,14.1-1.5,29.4,6.9,49.7c8.3,20.3,18.5,40,30.5,58.9
					c12,18.9,24.3,35.1,36.9,48.6c12.6,13.5,22.7,20.4,30.3,20.8c14.1,0.9,31.1-1.7,50.9-7.8c-30.7,24.8-65.1,51.1-97.7,78.9
					c-63.6,59-129.8,116.7-196.8,171.5c-67.6,55.2-135.3,107.5-201.3,155.4c-66.1,48-126.2,89.6-178.9,123.9
					c-52.5,34.2-96.9,60.3-131.8,77.8c-44.3,22-75,8.1-75.5,7.9c-3.6-4-6.4-15.8,14.9-49c17.6-27.6,42.7-61.1,74.5-99.7
					c31.9-38.6,69.1-81.6,110.6-127.6c41.4-45.9,82.1-92.6,120.9-138.8c39-46.4,74.3-91,105.1-132.5c31.3-42.2,53.3-79.3,65.2-110.2
					c2.4-6,3.8-12.1,4.1-18.5c-2-8.8-3.2-17.7-3.8-26.6c-0.3-1.1-0.6-2.1-1-3.2c-7.3-20.5-20.5-41.5-34.5-54.7
					c-10.6-10-30.2-27.2-42.3-29.5c-12.2-2.3-22.6,6.4-25.5,20.9c-2.5,10.4-0.7,20.6,1.2,31.3c3.2,17.8,6.5,36.1-8.8,59.7
					c-26.8,41.4-83.8,116.2-114.4,156.4c-35.1,46-73.2,93.5-113.3,141.2c-39.6,47-77.2,92.1-111.5,134.1
					c-33.6,41.1-62.8,77.9-86.7,109.2c-24.4,32.1-37.4,53.8-39.7,66.2c-3.8,18.2-2.2,37.8,4.8,58.4c6.8,20.2,17,39,30.2,56
					c13.2,17,51.9,42.5,69.8,53.2c15.4,9.2,31.8,13.8,48.9,13.8c3.3,0,6.6-0.2,10-0.5c13.7-1.2,34.4-10,63.3-26.8
					c28.1-16.4,60.6-38,96.5-64.1c0,0,53.6-38.9,116.6-88.2c43.8-34.2,79.6-63,123.5-99.4c40.8-33.8,79.7-66.3,116.9-97.5
					c20.6-17.3,39.7-33.6,57.4-48.8c-4.1,6.1-8.4,12.6-12.9,19.5c-17.2,26.6-34.1,54.5-50.4,83.1c-16.2,28.4-30.4,55.4-42.5,80.2
					c-12.4,25.6-19,43.2-20.2,53.9c-1.2,11.2,2,23.5,9.7,36.7c7.3,12.6,16.1,23.5,26,32.5c10.1,9.1,19.8,15.4,29,18.7
					c6,2.1,11.1,2.1,15.2-0.2c3.9-2.2,6.5-6.1,7.7-11.7l0-0.1c12.9-63.5,31.7-123.4,56.1-178.1c24.4-54.8,53.7-107.7,87.1-157.3
					c32.2-47.8,68.2-89.4,104.6-136.9c15-19.5,32.2-39.3,49.2-58.7c44.8-49,95.7-96.3,147-133.4c-0.1-0.4-0.3-0.7-0.4-1.1
					c13.5-11.4,21.9-22,25-31.9c4.2-13.4,2.4-24-5.3-32c-7.8-7.9-19.3-13.4-34.7-16.3c-13.3-2.5-25.9-2.5-37.9-0.4
					c-5.7,0.1-14.1,1-43.6,10.9c-32.7,10.9-48,18.1-58.4,22.5c-21.4,9-39.7,15-55.1,18c-15.4,3-25.1,0.9-29-6.3
					c-6.6-13.4-4.2-27.9,16.4-44.9c20.4-16.8,48.7-39,97.6-62.5c39.7-19.1,60.2-27.8,95.8-40.6c50.3-18.1,100-33.4,149.1-46
					c49.1-12.6,93.6-20.1,133.4-22.7c39.8-2.5,72.5,1,98.3,10.5c25.7,9.6,40.3,27.2,43.7,52.8c1.4,15-8.9,33.5-30.6,55.5
					c-21.8,22-49.9,45.6-84.4,70.9c-34.5,25.3-72.9,51.2-115.4,77.8c-42.5,26.6-82.7,51.1-120.7,73.4c-38,22.4-71.6,41.9-100.9,58.6
					c-29.3,16.7-34.3,19-42.3,25.1c-13.3,8.8-21,22.2-23.1,40.2c-2.2,18-0.8,35.5,3.9,52.4c4.8,16.9,11.7,30,20.6,39.5
					c9,9.5,14.4,11.2,25.6,2.7c7.1-5,14.6-9,31.5-18.7c17-9.6,31.8-14.7,53.6-24.2c21.8-9.5,44.8-18.1,69-25.7
					c24.2-7.6,47.5-12.4,70.1-14.5c22.5-2,42.9-0.4,61.3,5c6.1,1.8,11.6,4.3,16.7,7.3c8.4,5.5,15.3,12.9,20.5,22.2
					c10.2,18.6,10.7,41.5,1.4,68c-9.4,26.9-26.9,56.2-51.9,86.9c-25.1,30.8-56.7,63-93.9,95.6c-37.4,32.8-79.3,64.4-124.7,94
					c-45.5,29.7-94.4,57.2-145.3,81.7c-50.8,24.4-102.9,44.9-154.6,60.9c-51.8,16-103.2,25.8-152.8,29.3
					c-49.7,3.5-94.8,7.8-137.4-3.7c-21.8-6.1-47.1-17.4-59.5-35.6c-3.7-5.4-7.3-15.9-8.9-23.3c-3.5-15.8-19.3-22.1-32.6-29
					c-13.5-6.9-26-9.1-37-6.2c-9.6,2.5-16.6,10.2-16.3,22.1c-0.7,9.7,2.8,25.8,10.6,39.2c35.8,61.4,109.9,105.4,160.8,124.4
					c38.1,14.2,80,21.4,125.1,21.4c15.1,0,30.6-0.8,46.4-2.4c45.6-4.7,98.2-17.2,156.4-37.1c57.9-19.9,117.3-45,176.5-74.6
					c59.2-29.7,117.4-64,172.9-101.7c55.6-37.8,105.6-78,148.5-119.5c43-41.5,76.8-83.6,100.5-125.3c23.8-41.9,33.9-82.8,29.9-121.4
					c-1.4-14.1-7.5-30.6-18.1-49.1c-10.6-18.5-25.3-35.9-43.7-51.8c-18.4-16-40.6-28.8-65.9-38.1c-10.5-3.9-28.4-4.2-46.5-3.4
					c-11.9-0.4-24.4,0.4-37.4,2.5c6.2-2.7,17.3-8.6,33.3-17.6c15.9-9,34.6-20.4,56.1-34.3c21.5-13.8,44.4-29.4,68.7-46.8
					c24.4-17.3,47.3-35.6,68.8-54.9c21.5-19.2,40.5-39.1,57-59.5c16.5-20.4,27.7-40.6,33.4-60.6
					C2883,1002.8,2882.6,980.9,2876.9,953.9"/>
				<path clip-path="url(#SVGID_6_)" d="M3143.8,1332c27.1-11.2,49.5-9.3,67.3,5.5c17.7,14.8,29,33.8,33.7,56.8
					c70.4-4.8,124.2-11.1,161.4-18.9c37.2-7.7,66.7-17.1,88.5-28.2c10.4-4.4,20.1-7.6,29-9.4c8.9-1.8,14.7-1.1,17.4,2
					c2.7,3.1,1.5,8.7-3.5,16.7c-5.1,8-16.9,19.1-35.5,33.2c-13.4,10.8-30.3,20.7-50.6,29.6c-20.3,8.9-42,16.8-64.9,23.7
					c-23,6.9-47.1,12.7-72.2,17.5c-25.2,4.8-49.3,7.5-72.4,8.1c-5.5,32.8-16,67.3-31.5,103.4c-15.5,36.2-34.1,71.9-55.8,107.1
					c-21.8,35.3-45.5,69.3-71,102c-25.5,32.7-51.7,61.5-78.5,86.4c-26.8,24.9-53.2,44.7-79.1,59.5c-26,14.8-49.5,22.5-70.5,23
					c-26.3,0.6-49.4-5.9-69.2-19.7c-19.8-13.7-35.5-31.5-47.1-53.3c-11.6-21.8-19.5-46.1-23.9-72.8c-4.3-26.7-4.2-52.8,0.5-78.2
					c5.5-34.9,20.1-74.7,43.7-119.5c23.7-44.8,50.8-87.8,81.4-129.1c30.6-41.2,62.1-77.8,94.5-109.6c32.4-31.8,60.6-52.2,84.6-61.2
					c12.5-4.5,24.3-8.5,35.2-11.9c11-3.4,21.7-4.7,32.3-3.9c10.5,0.8,20.4,4.2,29.5,10.3c9.1,6.1,18,15.9,26.8,29.4L3143.8,1332z
					 M2782,1849.2c8.8,15.6,22.6,20.5,41.4,14.8c18.8-5.7,40.1-18.1,63.9-37.1c23.7-19,49.2-43.3,76.4-72.9
					c27.2-29.6,53.5-61.3,79-95.1c25.5-33.8,48.6-67.7,69.4-101.9c20.7-34.2,36.6-65.6,47.5-94.3c-33.9-6.5-55.5-18.4-64.8-35.6
					c-9.4-17.1-10-33.2-1.9-48.1c-21.8,13.2-45.8,31.9-72.1,56.2c-26.3,24.3-52.4,51.3-78.6,80.8c-26.1,29.6-50.6,60.7-73.6,93.4
					c-22.9,32.7-42.4,64.2-58.5,94.6c-16.1,30.4-27,58.3-32.7,83.7C2771.7,1813.1,2773.2,1833.6,2782,1849.2"/>
				<path clip-path="url(#SVGID_6_)" d="M3787.5,1497.1c-27.3,44.9-52.2,85.2-74.5,121c-22.3,35.8-40.5,66.3-54.6,91.3
					c-14.2,25.1-23.7,45.1-28.6,59.9c-4.9,14.9-4.2,23.8,2.2,26.8c7.5,4,22.3-3.4,44.5-22.4c22.2-18.9,47.1-42.2,74.9-69.7
					c27.8-27.5,54.9-55.8,81.6-84.9c26.7-29.1,48.2-52.2,64.6-69.5c13.3-14,27.3-25.4,41.8-34.2c14.5-8.8,26.2-13.5,35.2-14.3
					c8.9-0.7,13.2,2.6,12.9,10c-0.4,7.4-8.2,19.7-23.6,36.9c-22.6,23.7-49.8,55.4-81.4,95.1c-31.7,39.7-63.1,79.2-94.3,118.3
					c-31.2,39.2-59.6,73.6-85.2,103.1c-25.6,29.6-44.2,46.1-55.6,49.5c-15.7,5.7-30.1,6-43.4,1c-13.3-4.9-24.8-12.8-34.5-23.6
					c-9.7-10.8-16.9-23.8-21.5-39c-4.6-15.1-6-30.7-4.3-46.5c0.7-12.6,4.6-27.7,11.6-45.3c6.9-17.5,14.9-35.1,24-52.7
					c9-17.6,17.6-34.1,25.6-49.6c8-15.4,14.6-27.5,19.7-36c-4,7.5-12.7,20-25.9,37.7c-13.2,17.7-29.4,37.8-48.3,60.4
					c-18.9,22.6-39.7,46.2-62.2,71c-22.6,24.8-45.2,47.1-67.9,67.2c-22.7,20-44.4,36.9-65.1,50.5c-20.8,13.7-38.5,20.7-53.2,21
					c-16.8,0.4-33-5.8-48.6-18.6c-15.6-12.8-28.6-28.8-39.1-48c-10.4-19.2-18.1-39.8-22.8-61.8c-4.7-22-4.7-41.5,0.2-58.4
					c4.8-19.1,18.1-45.2,40-78.3c21.9-33.1,48.1-68.8,78.7-106.9c30.7-38.1,64.2-76.5,100.7-115.3c36.4-38.8,72.2-73.6,107.2-104.4
					c35-30.8,67.9-55.1,98.5-72.6c30.6-17.6,55.5-24.5,74.5-20.7c7.4,1.9,16,8,25.7,18.3c9.7,10.3,18.2,23.2,25.4,38.9
					c7.2,15.6,12.1,33.4,14.7,53.3c2.6,20,0.4,39.5-6.5,58.6c14.9,8.1,26.8,20.7,35.6,37.8
					C3795.3,1469.3,3795.6,1484.3,3787.5,1497.1 M3697.4,1360.3c-12.8-6-32.7-0.5-59.6,16.4c-27,17-56.9,40.8-89.8,71.6
					c-33,30.8-66.9,65.3-101.7,103.5c-34.9,38.2-65.3,75-91.3,110.4c-26,35.4-46,66.9-60.1,94.6c-14,27.7-16.8,46.2-8.1,55.5
					c7.6,9.3,24.6,6,51.1-9.9c26.5-15.9,57.7-40.6,93.8-74.1c36-33.5,74.8-73.1,116.3-118.9c41.5-45.7,81.7-93.8,120.5-144.2
					c13-26.6,22.7-49.7,29.1-69.4C3703.8,1376.2,3703.8,1364.4,3697.4,1360.3"/>
				<path clip-path="url(#SVGID_6_)" d="M4325.4,1539.5c11.3-11.8,23.7-21.3,37.2-28.5c13.5-7.2,24.5-10.8,32.9-11
					c8.4-0.2,13.2,2.6,14.4,8.3c1.2,5.8-4.9,15.7-18.2,29.7c-9.2,9.7-22.8,25.6-40.7,47.6c-17.9,22-38.4,46.7-61.4,74.1
					c-23,27.4-47.6,56.2-73.7,86.3c-26.1,30.1-51.8,57.6-77,82.4c-25.2,24.8-49.2,45.4-71.9,61.7c-22.8,16.3-41.5,24.7-56.3,25
					c-13.7,0.3-25.7-5.4-35.9-17.3c-10.3-11.8-18.8-26.4-25.5-43.6c-6.7-17.2-11.6-34.7-14.7-52.5c-3.1-17.8-4.7-33.1-5-45.7
					c0.5-24.2,8-51.2,22.5-81.1c14.5-29.8,32.2-60.5,53.1-92.1c20.8-31.5,42.7-63.6,65.6-96.3c22.9-32.7,42.9-64.4,60.1-95.4
					c-25.2,1.7-41,3.6-47.2,5.9l-6.3,1.7c-5.1,8.6-21.8,33.4-50.3,74.6c-28.5,41.2-71,91.5-127.4,150.7
					c-28.7,30.2-53.5,52.4-74.2,66.5c-20.7,14.2-36.6,23-47.5,26.4c-11,3.4-17,2.3-18.2-3.5c-1.2-5.7,3.4-14,13.6-24.8
					c69.8-73.3,123.3-138.2,160.3-194.9c37.1-56.7,56.3-97.1,57.9-121.4c-5.4-5.1-10.8-11.6-16.2-19.3c-5.5-7.8-9.9-16.1-13.2-24.9
					c-3.4-8.8-5.7-17.7-7-26.7c-1.3-8.9-0.9-17.1,1-24.5c3.9-12.7,10.5-23.1,19.8-31.3c9.3-8.1,19.1-13.9,29.6-17.3
					c10.4-3.4,20.4-4.4,29.9-3.1c9.5,1.4,16.4,5.1,20.8,11.4c4.3,6.2,9.5,13.5,15.5,21.7c6,8.3,11.4,17.1,16.4,26.4
					c5,9.4,8.6,19,11,28.9c2.4,10,2.1,19.7-0.9,29.2c12.6-2.4,23.3-5.3,32.1-8.7c8.9-3.4,17.4-8,25.7-14c8.3-6,17-13.3,26.3-22
					c9.3-8.6,20.1-19.4,32.4-32.4c9.3-8.6,18.7-11,28.2-7c9.6,4,17.6,11.2,24.2,21.5c6.6,10.4,11,22.1,13.5,35.2
					c2.4,13.1,1.1,23.9-4,32.5c-5.1,8.6-16,24.3-32.8,47.4c-16.8,23.1-36.2,50.4-58,81.9c-21.9,31.6-45,65-69.4,100.4
					c-24.4,35.3-46.5,68.8-66.3,100.3c-19.8,31.5-35.2,59.5-46.1,84c-11,24.5-14.8,40.9-11.5,49.2c2.3,6.3,13,3.9,32.2-7.1
					c19.2-11,44-28.7,74.5-53.1c30.5-24.4,65.3-54.7,104.4-90.9C4242.7,1623.8,4283.3,1583.6,4325.4,1539.5"/>
				<path clip-path="url(#SVGID_6_)" d="M5047.1,952.1c8.2-10.7,17.1-13.8,26.6-9.3c9.6,4.5,17.7,12.5,24.3,23.9
					c6.6,11.4,10.6,24.2,12,38.4c1.4,14.2-1.5,26.1-8.6,35.7c-69.5,89.1-134.5,176.1-195.1,261.3c-60.6,85.1-113,161.7-157.1,229.6
					c-44.1,67.9-78.6,124.3-103.3,169.1c-24.7,44.8-35.9,71.9-33.6,81.3c1.2,5.2,7.4,4,18.9-3.6c11.4-7.6,25.8-19,43.4-34.2
					c17.5-15.1,36.8-33,57.9-53.5c21.1-20.5,41.9-41,62.5-61.5c20.5-20.5,39.8-40.2,57.8-59c17.9-18.8,32.1-33.7,42.3-44.4
					c13.3-14,27.5-25.4,42.6-34.2c15-8.8,27-13.5,36-14.3c8.9-0.7,13.2,2.6,12.9,10c-0.4,7.4-8.8,19.7-25.2,36.9
					c-22.6,23.7-49.7,55.4-81.4,95.1c-31.7,39.7-62.8,79.2-93.5,118.3c-30.6,39.2-59,73.5-85.1,103.1
					c-26.1,29.6-44.5,46.1-54.9,49.5c-15.7,5.7-30.1,6-43.4,1c-13.3-4.9-24.8-12.8-34.5-23.6c-9.8-10.8-17.2-23.8-22.3-38.9
					c-5.1-15.1-6.8-30.6-5.1-46.5c1.8-12.7,6.2-27.8,13.1-45.3c6.9-17.5,14.7-35.1,23.2-52.7c8.5-17.6,17.1-34.1,25.6-49.6
					c8.6-15.4,15.4-27.5,20.5-36c-5.1,7.5-12.9,20.1-23.6,37.7c-10.6,17.6-23.8,37.7-39.6,60.2c-15.8,22.5-32.8,46.1-51.2,70.7
					c-18.4,24.7-37,47-56,66.9c-19,19.9-37.6,36.7-55.6,50.3c-18.1,13.6-35,20.6-50.8,21c-16.8,0.4-33.8-5.5-51-17.7
					c-17.1-12.2-32.2-27.1-45.3-44.7c-13.1-17.6-22.7-36.8-29-57.7c-6.3-20.9-7-39.8-2.1-56.8c4.8-18,16.3-43.3,34.5-75.8
					c18.2-32.5,40.2-67.8,66.1-105.8c25.9-38,55-76.6,87.2-115.8c32.2-39.2,65.1-74.2,98.5-105c33.4-30.8,66.6-55.5,99.3-74.2
					c32.7-18.7,62.8-26.2,90.3-22.7c10.6,1.9,23.4,11.6,38.6,29.1c15.2,17.6,25.7,38.9,31.5,64c55.1-71.8,107.2-140.7,156.1-206.7
					C4970.5,1049.4,5012.4,995,5047.1,952.1 M4691.3,1325.4c-12.7-2.8-32,5.5-57.8,25.1c-25.9,19.6-54.4,45.3-85.8,77.1
					c-31.4,31.8-62.9,67.3-94.6,106.5c-31.7,39.2-59.5,76.7-83.3,112.5c-23.9,35.9-41.5,67.6-53,95.2c-11.4,27.7-12.3,46.1-2.6,55.3
					c10.8,10.3,29.4,5.9,55.7-13.2c26.4-19,57.5-47.7,93.5-85.9c35.9-38.2,75.1-83.9,117.5-137c42.4-53.1,86-108.7,131-166.6
					c4.8-18,5.8-33,2.9-45.1C4711.9,1337.3,4704.1,1329.3,4691.3,1325.4"/>
				<path clip-path="url(#SVGID_6_)" d="M4953,1742c11.7,0,22.9,3.2,33.6,9.6c10.6,6.4,19.2,14.4,25.6,24c6.4,9.6,9.6,20.3,9.6,32
					c0,11.8-4.8,24-14.4,36.8c-9.6,12.8-22.4,23.2-38.4,31.2c-16,8-32.6,13.4-49.6,16c-17.1,2.7-32.5,2.7-46.4,0
					c-13.9-2.6-22.9-8.8-27.2-18.4c-5.3-10.7-5.3-23.5,0-38.4c5.4-14.9,13.6-29.3,24.8-43.2c11.2-13.9,24-25.6,38.4-35.2
					C4923.3,1746.8,4938,1742,4953,1742"/>
			</g>
		</g>
	</g>
</g>
</svg>
