<?xml version="1.0" encoding="utf-8"?>
<!-- Generator: Adobe Illustrator 17.1.0, SVG Export Plug-In . SVG Version: 6.00 Build 0)  -->
<!DOCTYPE svg PUBLIC "-//W3C//DTD SVG 1.1//EN" "http://www.w3.org/Graphics/SVG/1.1/DTD/svg11.dtd">
<svg version="1.1" id="Layer_1" xmlns:sketch="http://www.bohemiancoding.com/sketch/ns"
	 xmlns="http://www.w3.org/2000/svg" xmlns:xlink="http://www.w3.org/1999/xlink" x="0px" y="0px" viewBox="0 -1784.5 6373 6373"
	 enable-background="new 0 -1784.5 6373 6373" xml:space="preserve">
<title>Artboard 13</title>
<desc>Created with Sketch.</desc>
<g id="Page-1" sketch:type="MSPage">
	<g id="Artboard-13" sketch:type="MSArtboardGroup">
		<g id="Layer_1-2" transform="translate(545.000000, 392.000000)" sketch:type="MSLayerGroup">
			<path id="Shape-2" sketch:type="MSShapeGroup" fill="#FFB21C" stroke="#FFB21C" stroke-linejoin="round" d="M560.8,0.9v138.7
				l-439.9,254l-0.4,877.4L0.7,1202V324.1L560.8,0.9"/>
			<path id="Shape-3" sketch:type="MSShapeGroup" fill="#FF8800" stroke="#FF8800" stroke-linejoin="round" d="M560.8,0.9l120,69.5
				v138.5l-120-69.3V0.9z"/>
			<path id="Shape" sketch:type="MSShapeGroup" fill="#FF8800" stroke="#FF8800" stroke-linejoin="round" d="M560.7,508.2
				l120.4,69.9v368.7l-120.4,69.7V508.2z"/>
			<path id="Shape-4" sketch:type="MSShapeGroup" fill="#FFB21C" stroke="#FFB21C" stroke-linejoin="round" d="M0.7,354.1V185.6
				l120.2-68.7v167.8L0.7,354.1z"/>
			<path id="Shape-5" sketch:type="MSShapeGroup" fill="#FF8800" stroke="#FF8800" stroke-linejoin="round" d="M120.9,116.9
				l119.3,68.9l-119.3,68.9V116.9z"/>
			<path id="Shape_1_" sketch:type="MSShapeGroup" fill="#F57600" stroke="#F57600" stroke-linejoin="round" d="M680.7,1671.9v138.4
				l320-184.6l-120-69.3L680.7,1671.9z"/>
			<path id="Shape_2_" sketch:type="MSShapeGroup" fill="#FFB21C" stroke="#FFB21C" stroke-linejoin="round" d="M1000.3,762.3
				l-439.6,254.2V508.2l-120.6,69.6l0.2,1371.1l120,69.3v-863.3l320.4-184.7v586.2l120,69.3v-0.1L1000.3,762.3z"/>
			<path id="Shape_3_" sketch:type="MSShapeGroup" fill="#F57600" stroke="#F57600" stroke-linejoin="round" d="M880.7,1108.8V970.2
				l-320.4,184.7l120.8,69.7L880.7,1108.8z"/>
			<path id="Shape_4_" sketch:type="MSShapeGroup" fill="#FF8800" stroke="#FF8800" stroke-linejoin="round" d="M1120.3,831.6
				l-120-69.3l0.4,863.3l-320,184.7l0.4-585.7l-120.8-69.7v863.2l560-323.4V831.6z"/>
			<path id="Shape-6" sketch:type="MSShapeGroup" fill="#FF8800" stroke="#FF8800" stroke-linejoin="round" d="M120.5,393.8V1271
				l120.2-69.7V462.6l-119.8-69L120.5,393.8z"/>
			<path id="Shape-7" sketch:type="MSShapeGroup" fill="#F57600" stroke="#F57600" stroke-linejoin="round" d="M560.8,139.6
				l-439.9,254l119.8,69l440.1-253.7L560.8,139.6z"/>
		</g>
		<path id="readybox" sketch:type="MSShapeGroup" fill="#FF8800" d="M2340.8,1293.4c-11.5-5.8-26.8-8.7-45.9-8.7
			c-20.8,0-40.4,5-59.1,14.9s-37.7,24.4-57.3,43.5v295H2067v-453.8h111.6v64.9c19-20.8,39.5-37.9,61.4-51.5s46.4-20.3,73.5-20.3
			c23.1,0,39.5,3,49.3,9.1L2340.8,1293.4z M2504.8,1440.5c2,40.4,11.8,69.4,29.4,87s45.3,26.4,83.1,26.4c21.9,0,41.2-2.7,57.8-8.2
			s31.1-16,43.5-31.6l83.1,59.3c-18.2,26.2-41.7,45.9-70.7,58.8s-68.6,19.5-118.8,19.5c-74.7,0-130.4-19.6-167.2-58.8
			s-55.2-98.5-55.2-177.8c0-162.4,72.7-243.6,218-243.6c64.6,0,113.9,18.2,147.7,54.7s50.8,89.6,50.8,159.4v54.9H2504.8z
			 M2695.6,1363.5c0-68.9-30.1-103.4-90.4-103.4c-19.9,0-36.2,3.4-48.9,10.2s-22.9,16.9-30.5,30.3s-13.6,34.4-18,62.9H2695.6z
			 M3174.9,1638.2V1591c-44.1,40.4-91.4,60.6-141.9,60.6c-50.2,0-88.1-13.2-113.8-39.6s-38.5-60.2-38.5-101.4c0-32.3,6.6-59,19.7-80
			c13.1-21.1,32.6-37.6,58.4-49.5s62.9-20.4,111.4-25.3l95.6-9.1v-20.3c0-25.4-7.6-42.8-22.9-52.1s-37.6-14.1-67.1-14.1
			c-24.2,0-45.1,4-62.5,12.1s-30.4,19.6-38.7,34.6l-87-55.8c15.3-25.7,39.2-45.4,71.8-59.1s72-20.5,118.1-20.5
			c70.7,0,121.6,12.3,152.9,37s46.9,65.1,46.9,121.3v308.5H3174.9z M3165.8,1427.5l-56.7,5.2c-40.1,3.5-69,11.1-86.7,22.9
			s-26.6,29.6-26.6,53.2c0,20.8,5.8,35,17.3,42.6s26.8,11.5,45.9,11.5c13.6,0,30.1-4.3,49.5-12.8s38.6-20.5,57.3-36.1V1427.5z
			 M3698,1638.2V1594c-20.8,17.6-42.7,31.6-65.8,42s-49.3,15.6-78.7,15.6c-57.1,0-100.8-20.6-131.1-61.9s-45.4-99.5-45.4-174.8
			c0-77,16.7-136.9,50-179.5s80.1-64,140.4-64c21.3,0,43.3,4.4,65.8,13.2s41.1,20,55.8,33.5V994h111.6v644.2H3698z M3688.9,1310.2
			c-11.8-10.7-26.5-20.1-43.9-28.3s-35.3-12.3-53.4-12.3c-30,0-54.1,12.9-72.2,38.7s-27.3,60.8-27.3,104.9
			c0,43.6,7.4,77.7,22.3,102.5s37.9,37.2,69,37.2c18.5,0,37.3-4.3,56.5-12.8s35.5-19,49.1-31.4V1310.2z M3878.8,1699.2
			c24.2,8.4,46,12.5,65.3,12.5c16.7,0,31.4-5,44.1-15.1s25.8-31,39.4-62.7l11.7-26.8l-164-422.7h115.9l107.3,289.9l109.9-289.9
			h113.3l-195.1,485c-15.9,38.9-31.3,67.8-46.3,86.5s-32.5,32.3-52.6,40.7s-45.2,12.5-75.5,12.5c-32.9,0-65.3-4.3-97.3-13
			L3878.8,1699.2z M4819.3,1408c0,75.3-15.8,134.7-47.4,178.2s-76.6,65.3-135.2,65.3c-23.1,0-48.2-5.3-75.5-15.8s-49-23.9-65.1-40
			l-15.1,42.4h-85.2V994h111.6v226.7c41-32.9,86.2-49.3,135.8-49.3c60.9,0,105.4,21,133.7,62.9S4819.3,1334.2,4819.3,1408
			L4819.3,1408z M4704.2,1409.7c0-46.7-7.4-81.8-22.1-105.1s-38.4-35-70.9-35c-18.2,0-36.6,4.3-55.2,12.8s-34.8,19-48.7,31.4v198.6
			c12.4,10.7,27.5,20.1,45.2,28.3s35,12.3,51.7,12.3c32,0,56.7-12.2,74-36.6S4704.2,1456.5,4704.2,1409.7L4704.2,1409.7z
			 M5334.6,1412.3c0,75.6-17.4,134.3-52.3,176.3s-89.8,62.9-164.8,62.9c-145.4,0-218-79.7-218-239.2c0-76.7,17.4-136.1,52.3-178
			s90.1-62.9,165.7-62.9c75,0,129.9,21,164.8,62.9S5334.6,1335.6,5334.6,1412.3L5334.6,1412.3z M5219,1412.3
			c0-49.9-7.8-86.3-23.4-109.2s-41.7-34.4-78.3-34.4c-36.3,0-62.6,11.8-78.7,35.3s-24.2,59.6-24.2,108.4c0,48.5,8,84.1,24,107.1
			s42.3,34.4,79,34.4c36.1,0,62-11.3,77.9-34S5219,1461.4,5219,1412.3L5219,1412.3z M5682.4,1638.2l-90-144.5l-94.3,144.5h-123.7
			l156.6-224.1l-154-229.7h130.2l90.4,143.6l93-143.6h123.3L5657.7,1408l157,230.2H5682.4z"/>
	</g>
</g>
</svg>
